<?xml version="1.0" encoding="UTF-8" standalone="no"?>
<!DOCTYPE svg PUBLIC "-//W3C//DTD SVG 1.1//EN"
 "http://www.w3.org/Graphics/SVG/1.1/DTD/svg11.dtd">
<!-- Generated by graphviz version 2.50.0 (20220216.1147)
 -->
<!-- Title: Trie Pages: 1 -->
<svg width="164pt" height="476pt"
 viewBox="0.00 0.00 163.89 476.00" xmlns="http://www.w3.org/2000/svg" xmlns:xlink="http://www.w3.org/1999/xlink">
<g id="graph0" class="graph" transform="scale(1 1) rotate(0) translate(4 472)">
<title>Trie</title>
<polygon fill="white" stroke="transparent" points="-4,4 -4,-472 159.89,-472 159.89,4 -4,4"/>
<!-- Node0 -->
<g id="node1" class="node">
<title>Node0</title>
<ellipse fill="none" stroke="black" cx="77.45" cy="-450" rx="34.39" ry="18"/>
<text text-anchor="middle" x="77.45" y="-446.3" font-family="Times,serif" font-size="14.00">Node0</text>
</g>
<!-- Node1 -->
<g id="node2" class="node">
<title>Node1</title>
<ellipse fill="none" stroke="black" cx="77.45" cy="-378" rx="34.39" ry="18"/>
<text text-anchor="middle" x="77.45" y="-374.3" font-family="Times,serif" font-size="14.00">Node1</text>
</g>
<!-- Node0&#45;&gt;Node1 -->
<g id="edge1" class="edge">
<title>Node0&#45;&gt;Node1</title>
<path fill="none" stroke="black" d="M77.45,-431.7C77.45,-423.98 77.45,-414.71 77.45,-406.11"/>
<polygon fill="black" stroke="black" points="80.95,-406.1 77.45,-396.1 73.95,-406.1 80.95,-406.1"/>
</g>
<!-- Node2 -->
<g id="node3" class="node">
<title>Node2</title>
<ellipse fill="none" stroke="black" cx="77.45" cy="-306" rx="34.39" ry="18"/>
<text text-anchor="middle" x="77.45" y="-302.3" font-family="Times,serif" font-size="14.00">Node2</text>
</g>
<!-- Node1&#45;&gt;Node2 -->
<g id="edge2" class="edge">
<title>Node1&#45;&gt;Node2</title>
<path fill="none" stroke="black" d="M77.45,-359.7C77.45,-351.98 77.45,-342.71 77.45,-334.11"/>
<polygon fill="black" stroke="black" points="80.95,-334.1 77.45,-324.1 73.95,-334.1 80.95,-334.1"/>
</g>
<!-- Node3 -->
<g id="node4" class="node">
<title>Node3</title>
<ellipse fill="none" stroke="black" cx="77.45" cy="-234" rx="34.39" ry="18"/>
<text text-anchor="middle" x="77.45" y="-230.3" font-family="Times,serif" font-size="14.00">Node3</text>
</g>
<!-- Node2&#45;&gt;Node3 -->
<g id="edge3" class="edge">
<title>Node2&#45;&gt;Node3</title>
<path fill="none" stroke="black" d="M77.45,-287.7C77.45,-279.98 77.45,-270.71 77.45,-262.11"/>
<polygon fill="black" stroke="black" points="80.95,-262.1 77.45,-252.1 73.95,-262.1 80.95,-262.1"/>
</g>
<!-- Node6 -->
<g id="node5" class="node">
<title>Node6</title>
<ellipse fill="none" stroke="black" cx="34.45" cy="-162" rx="34.39" ry="18"/>
<text text-anchor="middle" x="34.45" y="-158.3" font-family="Times,serif" font-size="14.00">Node6</text>
</g>
<!-- Node3&#45;&gt;Node6 -->
<g id="edge4" class="edge">
<title>Node3&#45;&gt;Node6</title>
<path fill="none" stroke="black" d="M67.47,-216.76C62.28,-208.32 55.82,-197.8 50,-188.31"/>
<polygon fill="black" stroke="black" points="52.88,-186.32 44.66,-179.63 46.92,-189.99 52.88,-186.32"/>
</g>
<!-- Node4 -->
<g id="node8" class="node">
<title>Node4</title>
<ellipse fill="none" stroke="black" cx="121.45" cy="-162" rx="34.39" ry="18"/>
<text text-anchor="middle" x="121.45" y="-158.3" font-family="Times,serif" font-size="14.00">Node4</text>
</g>
<!-- Node3&#45;&gt;Node4 -->
<g id="edge7" class="edge">
<title>Node3&#45;&gt;Node4</title>
<path fill="none" stroke="black" d="M87.65,-216.76C92.96,-208.32 99.57,-197.8 105.54,-188.31"/>
<polygon fill="black" stroke="black" points="108.63,-189.96 110.99,-179.63 102.71,-186.24 108.63,-189.96"/>
</g>
<!-- Node7 -->
<g id="node6" class="node">
<title>Node7</title>
<ellipse fill="none" stroke="black" cx="34.45" cy="-90" rx="34.39" ry="18"/>
<text text-anchor="middle" x="34.45" y="-86.3" font-family="Times,serif" font-size="14.00">Node7</text>
</g>
<!-- Node6&#45;&gt;Node7 -->
<g id="edge5" class="edge">
<title>Node6&#45;&gt;Node7</title>
<path fill="none" stroke="black" d="M34.45,-143.7C34.45,-135.98 34.45,-126.71 34.45,-118.11"/>
<polygon fill="black" stroke="black" points="37.95,-118.1 34.45,-108.1 30.95,-118.1 37.95,-118.1"/>
</g>
<!-- Node8 -->
<g id="node7" class="node">
<title>Node8</title>
<ellipse fill="none" stroke="black" cx="34.45" cy="-18" rx="34.39" ry="18"/>
<text text-anchor="middle" x="34.45" y="-14.3" font-family="Times,serif" font-size="14.00">Node8</text>
</g>
<!-- Node7&#45;&gt;Node8 -->
<g id="edge6" class="edge">
<title>Node7&#45;&gt;Node8</title>
<path fill="none" stroke="black" d="M34.45,-71.7C34.45,-63.98 34.45,-54.71 34.45,-46.11"/>
<polygon fill="black" stroke="black" points="37.95,-46.1 34.45,-36.1 30.95,-46.1 37.95,-46.1"/>
</g>
<!-- Node5 -->
<g id="node9" class="node">
<title>Node5</title>
<ellipse fill="none" stroke="black" cx="121.45" cy="-90" rx="34.39" ry="18"/>
<text text-anchor="middle" x="121.45" y="-86.3" font-family="Times,serif" font-size="14.00">Node5</text>
</g>
<!-- Node4&#45;&gt;Node5 -->
<g id="edge8" class="edge">
<title>Node4&#45;&gt;Node5</title>
<path fill="none" stroke="black" d="M121.45,-143.7C121.45,-135.98 121.45,-126.71 121.45,-118.11"/>
<polygon fill="black" stroke="black" points="124.95,-118.1 121.45,-108.1 117.95,-118.1 124.95,-118.1"/>
</g>
</g>
</svg>
